<?xml version="1.0" encoding="utf-8"?>
<svg version="1.1" id="Layer_1" x="0px" y="0px" width="2272px" height="1872px" viewBox="0 0 2272 1872" enable-background="new 0 0 2272 1872" xmlns="http://www.w3.org/2000/svg">
  <defs/>
  <path fill="#000" d="M 1123.415 353.963 C 774.162 -114.362 177.425 124.569 177.425 662.999 C 177.425 1165.661 653.427 1497.59 1041.999 1789.935 C 1036.448 1702.184 1022.571 1591.064 986.026 1554.342 C 922.651 1490.437 869.455 1416.992 800.992 1341.164 C 745.019 1279.642 734.379 1280.597 662.679 1229.091 C 616.882 1196.184 652.501 1120.355 720.502 1149.924 C 788.039 1179.015 850.951 1214.307 902.298 1268.197 C 953.645 1322.087 973.998 1241.966 967.985 1182.354 C 961.971 1122.739 866.216 708.306 894.896 665.385 C 923.577 622.463 969.835 642.97 980.013 740.258 C 990.189 837.548 1035.986 1014.004 1062.816 1015.913 C 1089.646 1017.343 1074.843 676.83 1093.346 608.632 C 1107.224 556.649 1179.85 569.048 1180.774 632.955 C 1181.7 695.906 1174.299 989.205 1200.666 1007.805 C 1227.034 1026.404 1310.761 663.476 1314.462 652.031 C 1325.102 616.262 1385.238 625.8 1392.177 666.338 C 1402.353 724.521 1289.946 1065.987 1324.176 1081.726 C 1358.408 1097.464 1515.225 842.317 1541.592 830.394 C 1567.96 818.472 1606.817 849.948 1567.496 915.284 C 1528.177 980.621 1403.279 1181.4 1402.353 1245.305 C 1400.965 1309.212 1383.387 1401.731 1371.36 1482.329 C 1364.421 1530.02 1363.497 1599.649 1365.809 1669.754 C 1730.328 1394.101 2070.328 1104.14 2070.328 662.999 C 2069.403 124.569 1472.667 -114.362 1123.415 353.963 Z" style=""/>
</svg>
